<?xml version="1.0" encoding="UTF-8" standalone="no"?>
<svg
   width="319"
   height="277"
   xml:space="preserve"
   overflow="hidden"
   version="1.1"
   id="svg1"
   xmlns="http://www.w3.org/2000/svg"
   xmlns:svg="http://www.w3.org/2000/svg"><defs
     id="defs1"><clipPath
       id="clip0"><rect
         x="292"
         y="166"
         width="319"
         height="277"
         id="rect1" /></clipPath></defs><g
     clip-path="url(#clip0)"
     transform="translate(-292,-166)"
     id="g1"
     style="fill:#1988b9;fill-opacity:1"><path
       d="M 531.25,166 H 371.75 L 292,304.5 l 34.118,59.251 c -14.797,21.407 -25.755,47.795 -30.86,79.249 h 9.456 31.64 c 2.268,-16.189 5.865,-30.579 10.389,-43.433 1.514,-4.331 3.15,-8.476 4.868,-12.451 3.418,-7.884 7.137,-14.951 11.111,-21.419 2.62,-4.204 4.607,-7.195 6.664,-10.022 28.489,-39.26 66.141,-51.769 82.114,-51.769 v -6.856 -0.331 c -34.099,0 -68.141,11.786 -95.998,34.852 L 339.919,304.5 395.78,207.474 h 111.434 l 55.868,97.026 -55.868,97.026 H 395.78 l -22.062,-38.317 c -8.287,12.943 -15.519,28.468 -20.899,46.921 L 371.75,443 h 159.5 L 611,304.5 Z"
       fill="#EEEEEF"
       fill-rule="evenodd"
       id="path1"
       style="fill:#1988b9;fill-opacity:1" /></g></svg>
