<svg width="146px" height="28px" viewBox="0 0 146 28" version="1.1" xmlns="http://www.w3.org/2000/svg" xmlns:xlink="http://www.w3.org/1999/xlink">
    <g id="Symbols" stroke="none" stroke-width="1" fill="none" fill-rule="evenodd">
        <g transform="translate(-6.000000, -5.000000)">
            <g class="Group" transform="translate(6.000207, 5.517730)">
                <polygon id="Fill-1" fill="#252525" points="45.822773 7.83025957 39.2926383 23.5542525 35.2030851 23.5542525 28.9577021 7.83025957 33.4277872 7.83025957 37.3583972 18.6394369 41.5432128 7.83025957"></polygon>
                <path d="M49.7858965,14.2973348 C49.9753858,13.1562567 50.4082085,12.2838809 51.0854,11.6812426 C51.7610383,11.0796397 52.6385915,10.7788383 53.7165064,10.7788383 C54.7731943,10.7788383 55.6233078,11.0744624 56.2684,11.6657106 C56.9129745,12.2585121 57.2779745,13.1355475 57.3623645,14.2973348 L49.7858965,14.2973348 Z M61.578244,15.6910652 C61.578244,14.0229376 61.2556979,12.5587957 60.6116411,11.3017461 C59.9665489,10.043661 59.0527546,9.07136312 57.8697404,8.38433475 C56.685173,7.69834184 55.3219887,7.35456879 53.7796695,7.35456879 C52.1948965,7.35456879 50.8047901,7.70351915 49.6114213,8.40090213 C48.4164993,9.09880284 47.487173,10.0809376 46.8213716,11.3493773 C46.1555702,12.617817 45.8231872,14.0653915 45.8231872,15.6910652 C45.8231872,17.3198454 46.1555702,18.7617248 46.8213716,20.0192922 C47.487173,21.2763418 48.4164993,22.2496752 49.6114213,22.9356681 C50.8047901,23.621661 52.1736695,23.965434 53.7165064,23.965434 C55.3649603,23.965434 56.8394567,23.5740298 58.1389603,22.7932922 C59.4384638,22.0110014 60.3734851,20.9336043 60.9440241,19.5590298 L57.5202723,18.1963631 C56.7597262,19.6977816 55.4918043,20.4464199 53.7165064,20.4464199 C52.6810454,20.4464199 51.7874426,20.1730582 51.0372511,19.6232284 C50.2875773,19.0728809 49.8490596,18.2496894 49.7222156,17.1510652 L61.578244,17.1510652 L61.578244,15.6910652 Z" id="Fill-2" fill="#252525"></path>
                <path d="M69.5190908,8.13137163 C70.2905092,7.78293901 71.151495,7.60846383 72.102566,7.60846383 C72.6306511,7.60846383 73.243644,7.68249929 73.9415447,7.83005248 L73.9415447,11.6343362 C73.3497787,11.4862652 72.7569773,11.4122298 72.1657291,11.4122298 C70.834644,11.4122298 69.8043603,11.8253787 69.0753957,12.6485702 C68.3459135,13.4727972 67.9814312,14.6252652 67.9814312,16.1044213 L67.9814312,23.5540454 L63.7966156,23.5540454 L63.7966156,7.86215177 L67.6324809,7.86215177 L67.8545872,9.66903121 C68.1921475,8.99235745 68.7471546,8.48032199 69.5190908,8.13137163" id="Fill-4" fill="#252525"></path>
                <path d="M76.4449787,4.26402837 C75.9588298,3.78823404 75.7160142,3.19180851 75.7160142,2.47268085 C75.7160142,1.77478014 75.9588298,1.18870922 76.4449787,0.712914894 C76.9311277,0.237120567 77.5228936,-8.8817842e-16 78.2207943,-8.8817842e-16 C78.9171418,-8.8817842e-16 79.5094255,0.237120567 79.9955745,0.712914894 C80.4817234,1.18870922 80.724539,1.77478014 80.724539,2.47268085 C80.724539,3.19180851 80.4817234,3.78823404 79.9955745,4.26402837 C79.5094255,4.73930496 78.9171418,4.97694326 78.2207943,4.97694326 C77.5228936,4.97694326 76.9311277,4.73930496 76.4449787,4.26402837" id="Fill-6" fill="#252525"></path>
                <polygon id="Fill-8" fill="#252525" points="76.1600199 23.5535794 80.3127362 23.5535794 80.3127362 7.83010426 76.1600199 7.83010426"></polygon>
                <path d="M87.2070943,20.1772 C87.661144,20.5054411 88.2694773,20.6685262 89.0300234,20.6685262 C89.7056617,20.6685262 90.2503142,20.5375404 90.6629454,20.2724624 C91.0750589,20.0094553 91.2805979,19.6128738 91.2805979,19.0832355 C91.2805979,18.6830298 91.1537539,18.359966 90.9005837,18.1171504 C90.6468957,17.8743348 90.2658461,17.689505 89.7595057,17.5621433 L87.666839,16.9916043 C86.0385766,16.5696539 84.8710943,15.9670156 84.1638745,15.1847248 C83.4556191,14.402434 83.1020092,13.4622355 83.1020092,12.3636113 C83.1020092,10.9056823 83.6300943,9.70610071 84.6873,8.7653844 C85.7434702,7.82518582 87.2013993,7.35456879 89.061605,7.35456879 C90.6468957,7.35456879 91.9883355,7.71905106 93.0869596,8.44853333 C94.1861014,9.17698014 94.8519028,10.197427 95.0848816,11.5072851 L91.376378,12.3636113 C91.3126972,11.8350085 91.0792007,11.4234128 90.6784773,11.1272709 C90.2767184,10.8311291 89.7802149,10.6835759 89.1879312,10.6835759 C88.5759738,10.6835759 88.0836121,10.8259518 87.7139525,11.1107035 C87.3442929,11.3970085 87.1589454,11.7930723 87.1589454,12.2994128 C87.1589454,12.6804624 87.2971794,12.9967957 87.5715766,13.2510014 C87.8464915,13.5046894 88.3010589,13.7164411 88.9352787,13.8847035 L90.9948106,14.4241787 C92.4537752,14.8041929 93.5575766,15.3912993 94.3082858,16.1839447 C95.0579596,16.9760723 95.4338319,17.9431929 95.4338319,19.0832355 C95.4338319,20.563427 94.8736475,21.7469589 93.7537965,22.6343489 C92.6329099,23.5212213 91.0792007,23.965434 89.0937043,23.965434 C87.1910447,23.965434 85.6906617,23.5590156 84.5915199,22.745661 C83.4928957,21.9317887 82.8478035,20.8492142 82.6583142,19.4963844 L86.4625979,18.8611291 C86.504534,19.4114766 86.752527,19.8499943 87.2070943,20.1772" id="Fill-10" fill="#252525"></path>
                <path d="M107.131124,17.0548709 C107.131124,18.4289277 106.782174,19.4064028 106.084791,19.9872965 C105.387408,20.5692255 104.573535,20.8591546 103.643691,20.8591546 C102.798755,20.8591546 102.148486,20.6795021 101.694436,20.3207149 C101.239351,19.9619277 101.013103,19.454034 101.013103,18.7985872 C101.013103,18.1648851 101.229514,17.6626865 101.662337,17.293027 C102.09516,16.9238851 102.713848,16.7380199 103.516848,16.7380199 L107.131124,16.7380199 L107.131124,17.0548709 Z M111.20411,22.1586582 C111.151819,21.4825021 111.125415,20.7649277 111.125415,20.0028284 L111.125415,13.9805872 C111.125415,11.6337149 110.480323,9.94384255 109.191174,8.9073461 C107.902025,7.87292057 106.253571,7.35467234 104.24633,7.35467234 C100.949422,7.35467234 98.613422,8.63294894 97.2404007,11.1905376 L100.252039,12.9021546 C101.013103,11.4235163 102.259798,10.6836794 103.992642,10.6836794 C104.943195,10.6836794 105.698564,10.9000908 106.258748,11.3323957 C106.818415,11.7662539 107.099025,12.448105 107.099025,13.3779489 L107.099025,13.9163887 L102.534195,13.9163887 C100.780124,13.9163887 99.3905355,14.3502468 98.3654291,15.2169277 C97.339805,16.0836085 96.8282872,17.2982043 96.8282872,18.8617504 C96.8282872,20.4470411 97.3558546,21.6942539 98.413578,22.6023532 C99.4697482,23.5114879 100.84277,23.9655376 102.534195,23.9655376 C103.61211,23.9655376 104.552309,23.7755305 105.355826,23.3949986 C106.158309,23.0155021 106.771301,22.5288355 107.194287,21.9370695 C107.25745,22.5510979 107.331486,23.0895376 107.416911,23.5539418 L111.410684,23.5539418 C111.326294,23.3002539 111.256918,22.8353319 111.20411,22.1586582 L111.20411,22.1586582 Z" id="Fill-11" fill="#252525"></path>
                <path d="M127.260952,9.06670355 C128.380285,10.2077816 128.94047,11.8142993 128.94047,13.8847035 L128.94047,23.5538383 L124.819852,23.5538383 L124.819852,14.7731291 C124.819852,13.3576539 124.491611,12.3951929 123.8372,11.887817 C123.181753,11.3809589 122.452789,11.1272709 121.649789,11.1272709 C120.719427,11.1272709 119.885363,11.4120227 119.145009,11.9830794 C118.405689,12.5531007 118.03603,13.5155617 118.03603,14.8678738 L118.03603,23.5538383 L113.914895,23.5538383 L113.914895,7.83036312 L117.814441,7.83036312 L117.94025,9.38355461 C118.384462,8.77004397 119.018682,8.27923546 119.842909,7.90957589 C120.666618,7.53991631 121.565399,7.35456879 122.537696,7.35456879 C124.566165,7.35456879 126.140065,7.9251078 127.260952,9.06670355" id="Fill-12" fill="#252525"></path>
                <path d="M141.367606,17.0548709 C141.367606,18.4289277 141.018656,19.4064028 140.321791,19.9872965 C139.62389,20.5692255 138.810535,20.8591546 137.880691,20.8591546 C137.035755,20.8591546 136.385486,20.6795021 135.931436,20.3207149 C135.475833,19.9619277 135.250103,19.454034 135.250103,18.7985872 C135.250103,18.1648851 135.466514,17.6626865 135.898819,17.293027 C136.33216,16.9238851 136.95033,16.7380199 137.753848,16.7380199 L141.367606,16.7380199 L141.367606,17.0548709 Z M145.44111,22.1586582 C145.388301,21.4825021 145.362415,20.7649277 145.362415,20.0028284 L145.362415,13.9805872 C145.362415,11.6337149 144.717323,9.94384255 143.427656,8.9073461 C142.139025,7.87292057 140.490571,7.35467234 138.48333,7.35467234 C135.186422,7.35467234 132.850422,8.63294894 131.476883,11.1905376 L134.488521,12.9021546 C135.250103,11.4235163 136.49628,10.6836794 138.229124,10.6836794 C139.180195,10.6836794 139.935564,10.9000908 140.495748,11.3323957 C141.055415,11.7662539 141.335507,12.448105 141.335507,13.3779489 L141.335507,13.9163887 L136.771195,13.9163887 C135.016606,13.9163887 133.627535,14.3502468 132.601911,15.2169277 C131.576805,16.0836085 131.065287,17.2982043 131.065287,18.8617504 C131.065287,20.4470411 131.593372,21.6942539 132.65006,22.6023532 C133.70623,23.5114879 135.079252,23.9655376 136.771195,23.9655376 C137.848592,23.9655376 138.789309,23.7755305 139.592309,23.3949986 C140.395309,23.0155021 141.008301,22.5288355 141.431287,21.9370695 C141.493933,22.5510979 141.567968,23.0895376 141.653394,23.5539418 L145.647167,23.5539418 C145.562777,23.3002539 145.493918,22.8353319 145.44111,22.1586582 L145.44111,22.1586582 Z" id="Fill-13" fill="#252525"></path>
                <path d="M19.3869362,4.44000496 L6.46231206,4.44000496 L-2.84217094e-14,15.6814872 L2.76468085,20.4906858 C1.56561702,22.2281894 0.67770922,24.3700404 0.264042553,26.9229695 L1.03028369,26.9229695 L3.59408511,26.9229695 C3.77787943,25.6089695 4.0693617,24.4409695 4.43591489,23.3977426 C4.55861702,23.0462035 4.69115603,22.7096787 4.83042553,22.3871326 C4.83197872,22.3829908 4.83404965,22.3788489 4.83560284,22.3752248 C5.10741135,21.7472177 5.4087305,21.1735723 5.73075887,20.6485936 C5.74887943,20.619083 5.767,20.5890546 5.7856383,20.559544 C5.94302837,20.3074092 6.10404255,20.0645936 6.27075177,19.835239 C8.57931206,16.6486078 11.6302979,15.6333383 12.9246241,15.6333383 L12.9246241,15.076778 L12.9246241,15.049856 C10.1614965,15.049856 7.40302837,16.006622 5.1457234,17.8787355 L3.88297872,15.6814872 L8.40949645,7.80628865 L17.439234,7.80628865 L21.9662695,15.6814872 L17.439234,23.5566858 L8.40949645,23.5566858 L6.62177305,20.4466787 C5.9502766,21.4971539 5.36420567,22.7573099 4.9282766,24.2551043 L6.46231206,26.9229695 L19.3869362,26.9229695 L25.8492482,15.6814872 L19.3869362,4.44000496 Z" id="Fill-14" fill="#1988B9"></path>
            </g>
        </g>
    </g>
</svg>